<svg width="32" height="32" viewBox="0 0 32 32" fill="none" xmlns="http://www.w3.org/2000/svg">
<g clip-path="url(#clip0_1_5457)">
<path d="M30.2912 28.8318L29.7874 27.6426C28.7113 28.5855 27.4066 29.2735 25.9683 29.611L26.8924 30.8138C27.2653 31.299 27.8531 31.5886 28.4651 31.5886C29.1321 31.5886 29.7501 31.2566 30.1185 30.7006C30.4868 30.1445 30.5514 29.4459 30.2912 28.8318Z" fill="#6C5B5B"/>
<path d="M2.21269 27.6426L1.70894 28.8318C1.44882 29.446 1.51338 30.1445 1.88169 30.7005C2.25 31.2565 2.86813 31.5885 3.53513 31.5885C4.14701 31.5885 4.73482 31.2989 5.10782 30.8137L6.03194 29.611C4.59351 29.2735 3.28875 28.5855 2.21269 27.6426Z" fill="#6C5B5B"/>
<path d="M11.4442 3.76656H11.3418C11.0887 1.87537 9.46584 0.411621 7.50652 0.411621H6.64315C4.5089 0.411621 2.77246 2.148 2.77246 4.28231V12.3896H4.65202V4.28225C4.65202 3.18437 5.54527 2.29112 6.64315 2.29112H7.50652C8.42609 2.29112 9.20165 2.91787 9.42952 3.7665H9.27771C7.78259 3.7665 6.56621 4.98287 6.56621 6.478V8.06337C6.56621 8.566 6.96115 8.97525 7.45746 9.00068C7.47365 9.0015 7.48959 9.00312 7.50596 9.00312H13.2159C13.7349 9.00312 14.1556 8.58237 14.1556 8.06337V6.47806C14.1557 4.98293 12.9393 3.76656 11.4442 3.76656Z" fill="#6C5B5B"/>
<path d="M1.05518 19.7661V20.9587C1.05518 24.8226 4.19855 27.966 8.06236 27.966H23.9379C27.8017 27.966 30.9451 24.8226 30.9451 20.9587V19.7661H1.05518Z" fill="#6C5B5B"/>
<path d="M30.6481 15.1685H1.35187C0.606437 15.1685 0 15.775 0 16.5205C0 17.2659 0.606437 17.8723 1.35187 17.8723H30.6481C31.3936 17.8723 32 17.2659 32 16.5205C32 15.775 31.3936 15.1685 30.6481 15.1685Z" fill="#6C5B5B"/>
</g>
<defs>
<clipPath id="clip0_1_5457">
<rect width="32" height="32" fill="white"/>
</clipPath>
</defs>
</svg>
