<svg width="22" height="17" viewBox="0 0 22 17" fill="none" xmlns="http://www.w3.org/2000/svg">
<path d="M2.27959 6.25185H4.55899C4.41859 6.25185 4.28635 6.1871 4.19976 6.07679C4.11313 5.96648 4.08304 5.82241 4.11681 5.68564L4.40038 4.55233C4.55266 3.94236 5.09878 3.51655 5.727 3.51655H8.66198C9.41602 3.51655 10.0296 4.13015 10.0296 4.8842V5.79595C10.0296 6.0476 9.82538 6.25185 9.57373 6.25185H12.309C12.0574 6.25185 11.8531 6.0476 11.8531 5.79595V4.8842C11.8531 4.13015 12.4667 3.51655 13.2208 3.51655H16.1558C16.784 3.51655 17.3301 3.94236 17.4824 4.55233L17.7659 5.68564C17.8006 5.82151 17.7696 5.96648 17.683 6.07679C17.5964 6.1871 17.4642 6.25185 17.3238 6.25185H19.6032C19.8548 6.25185 20.0591 6.0476 20.0591 5.79595V3.06065C20.0591 1.80425 19.0361 0.78125 17.7797 0.78125H4.10313C2.84673 0.78125 1.82373 1.80425 1.82373 3.06065V5.79595C1.82373 6.0476 2.02794 6.25185 2.27959 6.25185Z" fill="#6C5B5B"/>
<path d="M19.603 7.16357H2.2794C1.023 7.16357 0 8.18658 0 9.44298V15.8253C0 16.077 0.20425 16.2812 0.455897 16.2812C0.707545 16.2812 0.911795 16.077 0.911795 15.8253V14.4577H20.9706V15.8253C20.9706 16.077 21.1749 16.2812 21.4265 16.2812C21.6782 16.2812 21.8824 16.077 21.8824 15.8253V9.44298C21.8824 8.18658 20.8594 7.16357 19.603 7.16357ZM20.9706 13.5459H0.911752V12.6342H20.9706V13.5459H20.9706Z" fill="#6C5B5B"/>
</svg>
