<svg width="32" height="32" viewBox="0 0 32 32" fill="none" xmlns="http://www.w3.org/2000/svg">
<g clip-path="url(#clip0_1_5447)">
<path d="M3.33313 12.6665H6.66644C6.46113 12.6665 6.26775 12.5718 6.14113 12.4105C6.01444 12.2492 5.97044 12.0385 6.01982 11.8385L6.4345 10.1812C6.65719 9.28919 7.45582 8.6665 8.3745 8.6665H12.6665C13.7692 8.6665 14.6665 9.56382 14.6665 10.6665V11.9998C14.6665 12.3678 14.3678 12.6665 13.9998 12.6665H17.9998C17.6318 12.6665 17.3331 12.3678 17.3331 11.9998V10.6665C17.3331 9.56382 18.2304 8.6665 19.3331 8.6665H23.6251C24.5438 8.6665 25.3424 9.28919 25.5651 10.1812L25.9798 11.8385C26.0305 12.0372 25.9851 12.2492 25.8585 12.4105C25.7318 12.5718 25.5385 12.6665 25.3332 12.6665H28.6665C29.0345 12.6665 29.3332 12.3678 29.3332 11.9998V7.99982C29.3332 6.1625 27.8372 4.6665 25.9999 4.6665H5.99982C4.1625 4.6665 2.6665 6.1625 2.6665 7.99982V11.9998C2.6665 12.3678 2.96513 12.6665 3.33313 12.6665Z" fill="#6C5B5B"/>
<path d="M28.6667 14H3.33331C1.496 14 0 15.496 0 17.3333V26.6666C0 27.0346 0.298687 27.3333 0.666687 27.3333C1.03469 27.3333 1.33337 27.0346 1.33337 26.6666V24.6666H30.6667V26.6666C30.6667 27.0346 30.9654 27.3333 31.3334 27.3333C31.7014 27.3333 32.0001 27.0346 32.0001 26.6666V17.3333C32 15.496 30.504 14 28.6667 14ZM30.6667 23.3333H1.33331V22H30.6666V23.3333H30.6667Z" fill="#6C5B5B"/>
</g>
<defs>
<clipPath id="clip0_1_5447">
<rect width="32" height="32" fill="white"/>
</clipPath>
</defs>
</svg>
