<svg width="113" height="100" viewBox="0 0 113 100" fill="none" xmlns="http://www.w3.org/2000/svg">
<rect width="113" height="100" rx="15" fill="#6C5B5B"/>
<path d="M24 65.5552C24 56.1844 24 46.8137 24 37.4304C24.0377 37.3926 24.1006 37.3549 24.1132 37.3046C24.7044 34.6128 26.3647 32.8645 28.8929 31.8079C28.8929 31.7324 28.9055 31.6318 28.8929 31.5186C28.7671 30.047 30.0501 28.8017 31.5721 28.8646C33.1569 28.9401 34.7543 28.8772 36.3392 28.8772C37.5719 28.8772 38.5655 29.7199 38.8171 30.94C38.88 31.2293 38.9932 31.4054 39.3454 31.3928C40.49 31.3677 41.6472 31.4054 42.7918 31.3677C42.9805 31.3677 43.2572 31.2042 43.3578 31.0406C44.2509 29.5187 45.1188 27.9841 45.9741 26.4496C46.7162 25.1415 47.647 24.022 49.3199 24.022C55.5335 23.9969 61.7471 23.9843 67.9607 24.0346C69.0299 24.0472 70.0236 24.4874 70.6022 25.4811C71.6336 27.2294 72.6273 28.9904 73.6209 30.7639C73.8473 31.1664 74.0612 31.4683 74.6398 31.4431C75.7844 31.4054 76.929 31.4683 78.061 31.5563C79.5075 31.6695 80.866 32.1853 82.1112 32.8896C83.7086 33.7827 85.0671 34.965 86.1236 36.4996C87.394 38.3486 88.2494 40.3611 88.2619 42.6126C88.2997 50.0337 88.2745 57.4674 88.2745 64.8885C88.2745 65.4042 88.2242 65.9325 88.0984 66.4231C87.4192 69.0393 86.1991 71.3285 84.086 73.1021C81.9603 74.8882 79.5327 75.9573 76.7906 75.9699C63.42 76.0202 50.062 75.9951 36.6914 75.9825C35.6851 75.9825 34.6663 75.8818 33.6726 75.7309C31.1947 75.341 29.1067 74.1209 27.371 72.3725C26.0125 70.9889 25.044 69.3538 24.5031 67.4796C24.3145 66.8507 24.1635 66.1967 24 65.5552ZM75.973 51.1783C75.9227 41.4428 68.1746 33.8581 58.6906 33.833C48.8922 33.8078 41.2447 41.4931 41.2447 51.1909C41.2447 60.8887 48.7413 68.0834 57.6718 68.5488C68.1872 69.1022 76.0863 60.4987 75.973 51.1783ZM34.0122 32.789C31.8991 32.5878 30.2891 34.638 30.2639 36.2354C30.2388 38.2479 31.723 40.0089 33.8361 39.9963C36.0247 39.9837 37.4712 38.4618 37.5215 36.3738C37.5719 34.4367 35.899 32.7261 34.0122 32.789Z" fill="#E6DDCC"/>
<path d="M70.5774 51.1664C70.5648 57.7825 65.282 63.3924 58.1627 63.1534C51.9617 62.9521 46.7921 58.1347 46.6411 51.267C46.5656 48.0093 47.7857 45.0911 50.1504 42.7264C52.5026 40.3743 55.3955 39.192 58.6407 39.2423C65.1814 39.3177 70.4893 44.3364 70.5774 51.1664Z" fill="#E6DDCC"/>
</svg>
