<svg width="113" height="100" viewBox="0 0 113 100" fill="none" xmlns="http://www.w3.org/2000/svg">
<rect width="113" height="100" rx="15" fill="#6C5B5B"/>
<path d="M56.2142 71.3968C46.9388 71.3968 37.6634 71.3968 28.4404 71.3968C27.7067 68.6195 27.9687 67.9906 30.1697 67.4666C30.1697 60.9686 30.1697 54.5229 30.1697 47.9201C29.436 47.9725 28.7548 48.1297 28.1259 48.0773C26.7634 48.0249 25.663 47.4485 25.1913 46.1384C24.7197 44.8283 25.1389 43.6754 26.2394 42.837C28.2307 41.2649 30.2745 39.6928 32.3182 38.1731C33.3139 37.4394 33.7331 36.601 33.7331 35.3957C33.6807 33.1948 33.7855 30.9938 33.7331 28.8453C33.6807 27.3256 34.3619 26.7491 35.8292 26.8539C37.0345 26.9064 38.2398 26.9064 39.4451 26.8539C40.9124 26.8015 41.5936 27.4304 41.5412 28.8977C41.4888 29.5265 41.5412 30.103 41.5412 31.0986C42.2749 30.5746 42.7465 30.3126 43.1657 29.9457C46.1003 27.6924 49.0349 25.4391 51.9695 23.1857C54.0132 21.6136 55.6377 21.6136 57.6815 23.1333C66.1184 29.5789 74.5554 36.077 82.9923 42.575C84.5644 43.7803 85.036 45.1427 84.3548 46.4528C83.988 47.2389 83.5687 47.4485 82.6255 47.0293C80.2149 45.9812 77.6996 45.1427 75.2366 44.1995C74.7126 43.9899 74.1885 43.7278 73.7693 43.4134C68.0049 39.0115 62.2406 34.6621 56.5286 30.2078C55.3233 29.2645 54.4324 29.2645 53.2272 30.2078C47.4628 34.7145 41.646 39.1163 35.8816 43.5182C35.0432 44.1471 34.7288 44.8283 34.7288 45.8764C34.7812 52.6364 34.7812 59.4489 34.7288 66.2089C34.7288 67.4666 35.0956 67.8334 36.3533 67.781C39.8119 67.6762 39.2879 68.2002 39.3403 64.7416C39.3927 61.021 39.2879 57.3527 39.3927 53.6321C39.4451 51.0643 40.7028 49.1254 43.1133 48.1297C45.2619 47.2389 47.3056 47.6581 49.0873 49.2302C50.5022 50.4355 50.9738 52.06 50.9738 53.8417C50.9738 57.9816 51.0262 62.069 50.9738 66.2089C50.9738 67.3094 51.1834 67.781 52.4411 67.781C55.2709 67.7286 55.5329 67.9906 56.2142 71.3968Z" fill="#E6DDCC"/>
<path d="M87.97 62.2791C87.97 70.9781 80.948 78.0002 72.249 78.0002C63.6548 78.0002 56.5804 70.9781 56.5804 62.3839C56.528 53.685 63.55 46.6105 72.1966 46.5581C80.8956 46.5581 87.9176 53.5802 87.97 62.2791ZM72.249 75.4324C79.5331 75.4324 85.4546 69.6156 85.4546 62.3315C85.4546 55.0475 79.6379 49.1783 72.4062 49.1259C65.0697 49.0735 59.2005 54.8902 59.1481 62.2791C59.0957 69.5632 64.9649 75.4324 72.249 75.4324Z" fill="#E6DDCC"/>
<path d="M60.4593 45.5087C60.3021 45.6135 60.2497 45.6135 60.1973 45.6135C56.005 46.0851 56.005 46.0851 56.005 41.9976C56.005 41.6832 56.005 41.3688 56.005 41.0544C56.005 37.1241 56.3718 36.8621 60.4593 37.753C60.4593 40.3207 60.4593 42.9409 60.4593 45.5087Z" fill="#E6DDCC"/>
<path d="M49.0349 45.6673C49.0349 43.0471 49.0349 40.6889 49.0349 38.3308C49.0349 38.0688 49.3493 37.5971 49.5589 37.5971C50.7118 37.5447 51.8647 37.4923 52.9652 37.5971C53.2272 37.5971 53.5416 38.2784 53.5416 38.6452C53.594 40.6365 53.5416 42.5755 53.594 44.5668C53.594 45.3528 53.332 45.7197 52.4935 45.7197C51.4455 45.6673 50.3974 45.6673 49.0349 45.6673Z" fill="#E6DDCC"/>
<path d="M71.0442 52.0073C71.7779 52.0073 72.2495 52.0073 72.8259 52.0073C72.8783 52.4266 72.9831 52.8458 72.9307 53.2126C72.8783 54.0511 73.2451 54.3655 74.0312 54.5751C75.0793 54.8371 76.1273 55.3087 77.1754 55.728C76.2321 57.8241 75.9177 57.9289 73.9788 57.4573C73.1927 57.2477 72.3019 57.2477 71.5158 57.4049C71.0442 57.4573 70.625 57.9813 70.2057 58.3481C70.5202 58.7674 70.7822 59.3438 71.2014 59.5534C72.3543 60.0774 73.5596 60.3919 74.7124 60.8111C77.2802 61.7544 78.2235 62.8548 78.1711 65.0034C78.1711 67.2043 76.861 69.3005 74.7124 69.9293C73.2451 70.3485 72.5115 70.925 72.9831 72.6543C72.3543 72.7067 71.8827 72.7067 71.3062 72.7591C71.2538 72.2874 71.0966 71.973 71.149 71.6062C71.2538 70.6105 70.7298 70.2961 69.8913 69.9817C68.6861 69.6149 67.5856 69.0384 66.1183 68.3572C67.1664 67.4139 67.8476 66.7851 68.4764 66.2087C68.4764 66.3659 68.4764 66.5231 68.4764 66.6803C70.1009 66.8899 71.673 67.2567 73.2976 67.2567C73.8216 67.2567 74.7648 66.4707 74.7648 66.0514C74.7648 65.4226 74.2408 64.5841 73.6644 64.2697C72.4067 63.6409 70.9918 63.3789 69.7341 62.8024C67.2188 61.702 66.4851 60.4443 67.1139 58.0337C67.4284 56.9332 68.2668 55.6756 69.2101 55.2039C70.4678 54.4179 71.5682 53.8938 71.0442 52.0073Z" fill="#E6DDCC"/>
</svg>
