<svg width="113" height="100" viewBox="0 0 113 100" fill="none" xmlns="http://www.w3.org/2000/svg">
<rect x="0.5" y="0.5" width="112" height="99" rx="14.5" fill="#6C5B5B" stroke="#DCC5BA"/>
<path d="M36.0431 70.8929C36.0107 70.4728 36.0107 70.1497 36.0107 69.8588C36.0107 56.0274 36.0107 42.2283 36.0107 28.3968C36.0107 25.8115 37.2065 23.9695 39.4363 23.2585C40.018 23.0646 40.632 23 41.246 23C52.2982 23 63.3504 23 74.4026 23C74.5965 23 74.7904 23.0323 75.049 23.0323C75.0167 23.1939 75.0167 23.3232 74.9843 23.4201C74.1764 24.7128 73.9825 26.1024 73.9825 27.5889C73.9825 42.1636 74.0149 56.706 73.9825 71.2807C73.9825 72.1533 73.9179 73.1228 73.5947 73.9307C72.7868 76.0959 70.6539 77.2593 68.3272 76.9038C66.1943 76.5806 64.5461 74.8032 64.2553 72.4764C64.0614 71.0868 63.8675 70.8929 62.4133 70.8929C54.0433 70.8929 45.6734 70.8929 37.2711 70.8929C36.851 70.8929 36.4632 70.8929 36.0431 70.8929ZM54.8835 46.5264C57.0164 46.5264 59.117 46.5264 61.2499 46.5264C62.8657 46.5264 63.0596 46.3648 63.0596 44.7813C63.0596 41.9051 63.0596 39.0613 63.0919 36.1851C63.0919 35.8619 63.3181 35.4418 63.5766 35.2479C64.223 34.7309 64.2876 34.1169 63.609 33.5675C60.9913 31.4346 58.3737 29.3017 55.6914 27.2658C55.4006 27.0396 54.625 27.0072 54.3342 27.2335C51.6196 29.334 48.9373 31.4992 46.255 33.6644C45.641 34.1492 45.641 34.7955 46.3197 35.1833C46.8691 35.4741 46.9014 35.8619 46.8691 36.3467C46.8691 39.2875 46.8691 42.196 46.8691 45.1368C46.8691 46.3001 47.1599 46.5587 48.3233 46.5587C50.5208 46.5264 52.7183 46.5264 54.8835 46.5264ZM55.0128 56.5768C50.9409 56.5768 46.9014 56.5768 42.8295 56.5768C41.86 56.5768 41.3753 56.9646 41.3753 57.7078C41.3753 58.4511 41.8923 58.8712 42.8295 58.8712C50.9409 58.8712 59.0524 58.8712 67.1961 58.8712C67.4546 58.8712 67.8101 58.9035 67.9394 58.742C68.2302 58.3542 68.618 57.9017 68.5857 57.4816C68.5534 56.7707 67.9394 56.5444 67.2284 56.5444C63.1242 56.6091 59.0847 56.5768 55.0128 56.5768ZM55.0128 49.4348C51.0702 49.4348 47.1599 49.4348 43.2173 49.4348C42.9265 49.4348 42.571 49.3379 42.3771 49.4671C42.0216 49.6934 41.5045 50.0488 41.4722 50.4043C41.4076 50.7598 41.7308 51.2769 42.0539 51.5677C42.2801 51.7616 42.7649 51.7616 43.1527 51.7616C51.0379 51.7616 58.9231 51.7616 66.8406 51.7616C67.0991 51.7616 67.4546 51.8586 67.5839 51.7293C67.9717 51.3738 68.4887 50.986 68.5857 50.5013C68.6826 49.8873 68.1979 49.4672 67.4869 49.4348C67.2284 49.4348 66.9699 49.4348 66.7113 49.4348C62.8011 49.4348 58.8908 49.4348 55.0128 49.4348ZM49.3251 63.751C47.1599 63.751 45.027 63.751 42.8618 63.751C42.0539 63.751 41.4399 64.0095 41.3753 64.8821C41.3106 65.6254 41.86 66.0455 42.7972 66.0455C47.063 66.0455 51.361 66.0455 55.6268 66.0455C56.6286 66.0455 57.081 65.6577 57.0487 64.8821C57.0164 63.9772 56.4024 63.7187 55.5945 63.7187C53.4939 63.751 51.3934 63.751 49.3251 63.751Z" fill="#E6DDCC"/>
<path d="M30 73.3161C30.3555 73.2838 30.6786 73.2838 31.0018 73.2838C40.9876 73.2838 50.9734 73.2838 60.9591 73.2515C61.7347 73.2515 62.0579 73.4454 62.2841 74.221C62.575 75.1581 63.1243 75.9984 63.5768 76.9679C63.2859 76.9679 62.9951 77.0002 62.6719 77.0002C53.5264 77.0002 44.3808 77.0002 35.2353 77.0002C32.6176 77.0002 30.8725 75.8691 30.0969 73.7362C30.0323 73.6069 30.0323 73.4777 30 73.3161Z" fill="#E6DDCC"/>
<path d="M76.3733 31.6278C76.3733 29.6888 76.244 27.8144 76.4056 25.9401C76.5349 24.2273 78.3123 23.0639 80.3159 23.1285C82.0933 23.1932 83.6445 24.4858 83.7091 26.1986C83.8061 27.976 83.7414 29.7857 83.7414 31.6601C81.2854 31.6278 78.8617 31.6278 76.3733 31.6278Z" fill="#E6DDCC"/>
<path d="M52.0404 39.6093C52.0404 41.516 52.0404 43.358 52.0404 45.297C50.6831 45.297 49.4228 45.297 48.0978 45.297C48.0978 42.0008 48.0978 38.7368 48.0978 35.4082C52.6867 35.4082 57.211 35.4082 61.7999 35.4082C61.7999 38.6722 61.7999 41.9361 61.7999 45.297C60.6042 45.297 59.3439 45.297 57.9866 45.297C57.9866 43.455 57.9866 41.5806 57.9866 39.6417C55.9507 39.6093 54.044 39.6093 52.0404 39.6093Z" fill="#E6DDCC"/>
<path d="M47.5159 34.0845C50.1335 31.9839 52.5249 30.0773 54.981 28.106C57.437 30.0773 59.8607 32.0162 62.4461 34.0845C57.4047 34.0845 52.5895 34.0845 47.5159 34.0845Z" fill="#E6DDCC"/>
<path d="M53.2356 40.7427C54.399 40.7427 55.5301 40.7427 56.6935 40.7427C56.6935 42.2615 56.6935 43.7158 56.6935 45.267C55.5624 45.267 54.4313 45.267 53.2356 45.267C53.2356 43.7804 53.2356 42.3262 53.2356 40.7427Z" fill="#E6DDCC"/>
</svg>
