<svg width="45" height="45" viewBox="0 0 45 45" fill="none" xmlns="http://www.w3.org/2000/svg">
<path fill-rule="evenodd" clip-rule="evenodd" d="M4 0C1.79086 0 0 1.79086 0 4V41C0 43.2091 1.79086 45 4 45H24.0983V30.1371H19.1222V24.3199H24.0875V20.0508C24.0875 15.0856 27.1205 12.3809 31.5381 12.3809C33.0275 12.3751 34.5162 12.4519 35.9972 12.6111V17.7975H32.9533C30.5511 17.7975 30.0848 18.9468 30.0848 20.6254V24.3308H35.8255L35.0826 30.148H30.0848V45H41C43.2091 45 45 43.2091 45 41V4C45 1.79086 43.2091 0 41 0H4Z" fill="#6C5B5B"/>
</svg>
