<svg width="49" height="49" viewBox="0 0 49 49" fill="none" xmlns="http://www.w3.org/2000/svg">
<path d="M12.2012 24.5C11.9534 24.4996 11.7083 24.551 11.4815 24.6507C11.2547 24.7504 11.0513 24.8964 10.8841 25.0792C10.7169 25.2621 10.5897 25.4778 10.5106 25.7125C10.4315 25.9473 10.4022 26.196 10.4247 26.4428C11.0897 33.7435 16.4809 39.9375 24.6699 39.9375C32.8589 39.9375 38.2478 33.7435 38.9152 26.4428C38.9376 26.196 38.9084 25.9473 38.8293 25.7125C38.7502 25.4778 38.623 25.2621 38.4558 25.0792C38.2886 24.8964 38.0851 24.7504 37.8583 24.6507C37.6315 24.551 37.3864 24.4996 37.1387 24.5H12.2012ZM24.6699 36.375C19.3095 36.375 15.4763 32.86 14.2959 28.0625H35.0439C33.8659 32.86 30.0327 36.375 24.6699 36.375ZM32.3887 16.7813C31.4197 16.7813 30.7024 17.4629 30.5884 18.23C30.5191 18.6974 30.267 19.1181 29.8875 19.3996C29.5081 19.6811 29.0323 19.8003 28.5649 19.731C28.0975 19.6617 27.6768 19.4096 27.3953 19.0301C27.1139 18.6506 26.9946 18.1749 27.0639 17.7075C27.4487 15.1188 29.7311 13.2188 32.3887 13.2188C35.0463 13.2188 37.3287 15.1188 37.7134 17.7075C37.7827 18.1749 37.6635 18.6506 37.382 19.0301C37.1005 19.4096 36.6798 19.6617 36.2124 19.731C35.745 19.8003 35.2693 19.6811 34.8898 19.3996C34.5103 19.1181 34.2582 18.6974 34.1889 18.23C34.0749 17.4629 33.3577 16.7813 32.3887 16.7813ZM15.1509 18.23C15.2649 17.4629 15.9822 16.7813 16.9512 16.7813C17.9225 16.7813 18.6374 17.4629 18.7514 18.23C18.8207 18.6974 19.0728 19.1181 19.4523 19.3996C19.8318 19.6811 20.3075 19.8003 20.7749 19.731C21.2423 19.6617 21.663 19.4096 21.9445 19.0301C22.226 18.6506 22.3452 18.1749 22.2759 17.7075C21.8935 15.1188 19.6088 13.2188 16.9512 13.2188C14.2935 13.2188 12.0112 15.1188 11.6264 17.7075C11.5571 18.1749 11.6763 18.6506 11.9578 19.0301C12.2393 19.4096 12.66 19.6617 13.1274 19.731C13.5948 19.8003 14.0706 19.6811 14.45 19.3996C14.8295 19.1181 15.0816 18.6974 15.1509 18.23ZM24.6699 0.75C11.5528 0.75 0.919922 11.3829 0.919922 24.5C0.919922 37.6171 11.5528 48.25 24.6699 48.25C37.787 48.25 48.4199 37.6171 48.4199 24.5C48.4199 11.3829 37.787 0.75 24.6699 0.75ZM4.48242 24.5C4.48242 19.1459 6.60931 14.0112 10.3952 10.2253C14.1811 6.43939 19.3159 4.3125 24.6699 4.3125C30.024 4.3125 35.1588 6.43939 38.9446 10.2253C42.7305 14.0112 44.8574 19.1459 44.8574 24.5C44.8574 29.8541 42.7305 34.9888 38.9446 38.7747C35.1588 42.5606 30.024 44.6875 24.6699 44.6875C19.3159 44.6875 14.1811 42.5606 10.3952 38.7747C6.60931 34.9888 4.48242 29.8541 4.48242 24.5Z" fill="#6C5B5B"/>
</svg>
