<svg width="49" height="49" viewBox="0 0 49 49" fill="none" xmlns="http://www.w3.org/2000/svg">
<path d="M16.9401 17.8748C16.6473 17.8748 16.3664 17.7585 16.1593 17.5514C15.9523 17.3444 15.8359 17.0635 15.8359 16.7707C15.8359 16.4778 15.9523 16.197 16.1593 15.9899C16.3664 15.7828 16.6473 15.6665 16.9401 15.6665C17.2329 15.6665 17.5138 15.7828 17.7209 15.9899C17.9279 16.197 18.0443 16.4778 18.0443 16.7707C18.0443 17.0635 17.9279 17.3444 17.7209 17.5514C17.5138 17.7585 17.2329 17.8748 16.9401 17.8748ZM32.3984 17.8748C32.1056 17.8748 31.8247 17.7585 31.6177 17.5514C31.4106 17.3444 31.2943 17.0635 31.2943 16.7707C31.2943 16.4778 31.4106 16.197 31.6177 15.9899C31.8247 15.7828 32.1056 15.6665 32.3984 15.6665C32.6913 15.6665 32.9721 15.7828 33.1792 15.9899C33.3863 16.197 33.5026 16.4778 33.5026 16.7707C33.5026 17.0635 33.3863 17.3444 33.1792 17.5514C32.9721 17.7585 32.6913 17.8748 32.3984 17.8748Z" fill="#555555" stroke="#555555" stroke-width="4" stroke-linecap="round" stroke-linejoin="round"/>
<path d="M24.6693 46.5832C36.8659 46.5832 46.7526 36.6965 46.7526 24.4998C46.7526 12.3032 36.8659 2.4165 24.6693 2.4165C12.4726 2.4165 2.58594 12.3032 2.58594 24.4998C2.58594 36.6965 12.4726 46.5832 24.6693 46.5832Z" stroke="#555555" stroke-width="4" stroke-linecap="round" stroke-linejoin="round"/>
<path d="M14.7324 32.2292C14.7324 32.2292 18.0449 27.8125 24.6699 27.8125C31.2949 27.8125 34.6074 32.2292 34.6074 32.2292" stroke="#555555" stroke-width="4" stroke-linecap="round" stroke-linejoin="round"/>
</svg>
