<svg width="53" height="53" viewBox="0 0 53 53" fill="none" xmlns="http://www.w3.org/2000/svg">
<path d="M35.5367 33.4882L35.5369 33.488C35.7043 33.2761 35.9118 33.0992 36.1476 32.9676C36.3833 32.8359 36.6427 32.7519 36.9109 32.7205C37.1791 32.689 37.4509 32.7107 37.7107 32.7843C37.9706 32.8579 38.2133 32.982 38.4252 33.1494C38.6371 33.3168 38.8139 33.5243 38.9456 33.7601C39.0773 33.9958 39.1613 34.2552 39.1927 34.5234C39.2242 34.7916 39.2025 35.0634 39.1289 35.3232C39.0553 35.583 38.9312 35.8258 38.7638 36.0377C37.3234 37.8667 35.4863 39.3448 33.3913 40.3603C31.2963 41.3758 28.998 41.9022 26.6698 41.8999M35.5367 33.4882L14.5629 36.0222C16.0033 37.8557 17.8417 39.3376 19.9392 40.3559C22.0366 41.3742 24.3382 41.9021 26.6698 41.8999M35.5367 33.4882C34.4811 34.8298 33.1344 35.914 31.5984 36.6588C30.0623 37.4035 28.3771 37.7895 26.67 37.7874H26.6696M35.5367 33.4882L26.6696 37.7874M26.6698 41.8999C26.6698 41.8999 26.6699 41.8999 26.6699 41.8999L26.6698 41.7499L26.6696 41.8999C26.6697 41.8999 26.6697 41.8999 26.6698 41.8999ZM26.6696 37.7874C24.9607 37.7895 23.2736 37.4029 21.7361 36.6568C20.2142 35.9182 18.8783 34.8464 17.8274 33.5213V33.5188L17.7952 33.478C17.6282 33.2658 17.421 33.0885 17.1854 32.9564C16.9498 32.8242 16.6906 32.7397 16.4224 32.7078C16.1542 32.6758 15.8823 32.697 15.6223 32.7702C15.3623 32.8433 15.1192 32.9669 14.907 33.1339L14.9997 33.2518M26.6696 37.7874L14.9997 33.2518M14.9997 33.2518L14.907 33.1339C14.6947 33.301 14.5175 33.5082 14.3853 33.7438C14.2532 33.9793 14.1687 34.2386 14.1367 34.5068C14.1048 34.775 14.126 35.0469 14.1991 35.3069C14.2722 35.5669 14.3958 35.8099 14.5628 36.0221L14.9997 33.2518ZM52.2416 26.4999C52.2416 12.3769 40.7928 0.928125 26.6698 0.928125C12.5468 0.928125 1.09805 12.3769 1.09805 26.4999C1.09805 40.6203 12.5468 52.0691 26.6698 52.0665C40.7902 52.0665 52.2416 40.6204 52.2416 26.4999ZM18.3849 6.6067C21.0153 5.54214 23.8307 5.00984 26.6682 5.04062C32.3189 5.1019 37.7173 7.38963 41.6915 11.4071C45.6656 15.4246 47.8947 20.8476 47.8947 26.4986C47.8947 32.1496 45.6656 37.5726 41.6915 41.5901C37.7173 45.6076 32.3189 47.8953 26.6682 47.9566C23.8307 47.9874 21.0153 47.4551 18.3849 46.3905C15.7545 45.3259 13.3613 43.7503 11.344 41.7546C9.32659 39.759 7.72504 37.3831 6.63202 34.7644C5.53899 32.1457 4.97619 29.3363 4.97619 26.4986C4.97619 23.661 5.53899 20.8515 6.63202 18.2328C7.72504 15.6141 9.32659 13.2382 11.344 11.2426C13.3613 9.24695 15.7545 7.67126 18.3849 6.6067ZM20.3424 18.3151C19.9279 18.1537 19.4852 18.0769 19.0406 18.0895C18.1748 18.114 17.3527 18.4751 16.749 19.0962C16.1453 19.7172 15.8076 20.5492 15.8076 21.4153C15.8076 22.2814 16.1453 23.1133 16.749 23.7344C17.3527 24.3554 18.1748 24.7165 19.0406 24.741C19.4852 24.7536 19.9279 24.6769 20.3424 24.5154C20.7569 24.3539 21.1348 24.111 21.4537 23.8009C21.7727 23.4908 22.0263 23.12 22.1994 22.7102C22.3725 22.3004 22.4617 21.8601 22.4617 21.4153C22.4617 20.9704 22.3725 20.5301 22.1994 20.1203C22.0263 19.7106 21.7727 19.3397 21.4537 19.0296C21.1348 18.7196 20.7569 18.4766 20.3424 18.3151ZM35.5924 18.3151C35.1779 18.1537 34.7352 18.0769 34.2906 18.0895C33.4248 18.114 32.6027 18.4751 31.999 19.0962C31.3953 19.7172 31.0576 20.5492 31.0576 21.4153C31.0576 22.2814 31.3953 23.1133 31.999 23.7344C32.6027 24.3554 33.4248 24.7165 34.2906 24.741C34.7352 24.7536 35.1779 24.6769 35.5924 24.5154C36.0069 24.3539 36.3848 24.111 36.7037 23.8009C37.0227 23.4908 37.2763 23.12 37.4494 22.7102C37.6225 22.3004 37.7117 21.8601 37.7117 21.4153C37.7117 20.9704 37.6225 20.5301 37.4494 20.1203C37.2763 19.7106 37.0227 19.3397 36.7037 19.0296C36.3848 18.7196 36.0069 18.4766 35.5924 18.3151Z" fill="#6C5B5B" stroke="#6C5B5B" stroke-width="0.3"/>
</svg>
