<svg width="49" height="49" viewBox="0 0 49 49" fill="none" xmlns="http://www.w3.org/2000/svg">
<path d="M24.5 0.75C11.3662 0.75 0.75 11.4375 0.75 24.5C0.75 37.5625 11.3662 48.25 24.5 48.25C37.5625 48.25 48.25 37.5625 48.25 24.5C48.25 11.4375 37.5625 0.75 24.5 0.75ZM24.5 43.5C14.0025 43.5 5.5 34.9975 5.5 24.5C5.5 14.0025 14.0025 5.5 24.5 5.5C34.9975 5.5 43.5 14.0025 43.5 24.5C43.5 34.9975 34.9975 43.5 24.5 43.5ZM32.8125 22.125C34.7838 22.125 36.375 20.5338 36.375 18.5625C36.375 16.5913 34.7838 15 32.8125 15C30.8413 15 29.25 16.5913 29.25 18.5625C29.25 20.5338 30.8413 22.125 32.8125 22.125ZM16.1875 22.125C18.1588 22.125 19.75 20.5338 19.75 18.5625C19.75 16.5913 18.1588 15 16.1875 15C14.2163 15 12.625 16.5913 12.625 18.5625C12.625 20.5338 14.2163 22.125 16.1875 22.125ZM24.5 28.0625C18.9662 28.0625 14.2638 31.53 12.3637 36.375H36.6362C34.7363 31.53 30.0338 28.0625 24.5 28.0625Z" fill="#555555"/>
</svg>
