<svg width="50" height="45" viewBox="0 0 50 45" fill="none" xmlns="http://www.w3.org/2000/svg">
<rect width="50" height="44.9721" rx="5" fill="#E6DDCC"/>
<path d="M23.101 8.99703C23.4574 9.03618 23.8181 9.07098 24.1745 9.11884C26.0651 9.38857 27.721 10.1586 29.1465 11.4333C30.4026 12.5557 31.4761 13.8217 32.0933 15.4053C33.2624 18.4202 33.2798 21.4003 31.6673 24.2977C31.45 24.6892 31.2545 25.0938 31.0415 25.4897C30.9763 25.6159 30.985 25.7203 31.085 25.8203C31.3283 26.064 31.5717 26.312 31.8151 26.5556C31.9281 26.6687 32.0542 26.6774 32.2106 26.6252C32.4931 26.5382 32.78 26.4686 33.0712 26.4033C33.4797 26.312 33.8535 26.4033 34.1708 26.6643C34.4315 26.8819 34.6793 27.1168 34.9183 27.3561C35.9918 28.448 37.0653 29.5487 38.1345 30.645C38.3301 30.8452 38.5213 31.054 38.6995 31.2759C39.0428 31.7065 39.0689 32.1721 38.7995 32.6506C38.7125 32.8072 38.6256 32.9725 38.5083 33.1074C37.8085 33.8687 37.1088 34.6301 36.3873 35.3697C36.1179 35.6437 35.7788 35.8352 35.3964 35.9265C34.9965 36.0266 34.6141 35.9831 34.2881 35.7177C33.8883 35.3958 33.4754 35.0825 33.1146 34.7214C31.9151 33.5163 30.7373 32.2895 29.5507 31.0757C29.2595 30.7799 29.19 30.458 29.3421 30.0664C29.4595 29.7619 29.5334 29.4443 29.6333 29.1354C29.6768 29.0049 29.6594 28.9135 29.5421 28.8178C29.2726 28.6003 29.0118 28.3697 28.7554 28.1348C28.6554 28.0434 28.5728 28.0217 28.4512 28.0826C27.8688 28.3697 27.269 28.6308 26.6996 28.9396C22.7924 31.054 17.5031 29.7662 14.6998 26.5208C12.6788 24.1846 11.7313 21.4525 12.066 18.381C12.5354 14.0523 14.9562 11.1853 18.9982 9.65395C19.9978 9.27546 21.0409 9.07969 22.1101 9.02748C22.1796 9.02313 22.2491 9.00573 22.323 8.99268C22.5794 8.99703 22.8402 8.99703 23.101 8.99703ZM22.6272 12.2033C18.5244 12.2033 15.1648 15.4705 15.1692 19.4469C15.1735 23.4189 18.4592 26.76 22.3665 26.76C26.3998 26.76 29.7289 23.4928 29.7289 19.5513C29.7246 15.5619 26.4736 12.199 22.6272 12.2033Z" fill="#6C5B5B"/>
<path d="M21.4893 25.8949C21.0069 25.8862 20.5505 25.7557 20.1202 25.5469C18.3166 24.6724 17.0344 23.3194 16.3608 21.4183C16.226 21.0441 16.1913 20.6569 16.3347 20.2741C16.4607 19.926 16.6998 19.6911 17.0692 19.652C17.4691 19.6128 17.8689 19.6781 18.0862 20.0696C18.2644 20.3872 18.4078 20.7309 18.5513 21.0702C18.8903 21.8794 19.3379 22.6146 20.1028 23.0758C20.494 23.3107 20.9373 23.4586 21.3589 23.637C21.5892 23.7327 21.837 23.798 22.063 23.9067C22.5802 24.1547 22.7888 24.6028 22.6671 25.1553C22.5758 25.573 22.1543 25.8775 21.6414 25.9036C21.5892 25.8949 21.5414 25.8949 21.4893 25.8949Z" fill="#6C5B5B"/>
<path d="M18.462 17.5291C18.4577 18.0943 18.0755 18.4769 17.5021 18.4725C16.9288 18.4725 16.425 17.9986 16.4337 17.4682C16.438 16.9639 17.0157 16.4639 17.5847 16.4683C18.0841 16.4726 18.4663 16.9291 18.462 17.5291Z" fill="#6C5B5B"/>
</svg>
