<svg width="46" height="45" viewBox="0 0 46 45" fill="none" xmlns="http://www.w3.org/2000/svg">
<path fill-rule="evenodd" clip-rule="evenodd" d="M4.24414 0C2.035 0 0.244141 1.79086 0.244141 4V41C0.244141 43.2091 2.035 45 4.24414 45H41.2441C43.4533 45 45.2441 43.2091 45.2441 41V4C45.2441 1.79086 43.4533 0 41.2441 0H4.24414ZM11.8719 11.7425C12.9118 10.7031 14.3219 10.1191 15.7922 10.1191H30.5791C32.049 10.1197 33.4586 10.7039 34.4979 11.7433C35.5373 12.7826 36.1215 14.1922 36.1221 15.6621V30.4491C36.1221 31.9193 35.5381 33.3294 34.4987 34.3693C33.4593 35.4091 32.0494 35.9936 30.5791 35.9942H15.7922C14.3215 35.9942 12.9111 35.4099 11.8712 34.37C10.8313 33.3301 10.2471 31.9197 10.2471 30.4491V15.6621C10.2476 14.1918 10.8321 12.782 11.8719 11.7425ZM31.7063 16.7999C32.0058 16.5004 32.1741 16.0942 32.1741 15.6706C32.1741 15.2471 32.0058 14.8408 31.7063 14.5413C31.4068 14.2418 31.0005 14.0735 30.577 14.0735C30.1534 14.0735 29.7472 14.2418 29.4477 14.5413C29.1481 14.8408 28.9799 15.2471 28.9799 15.6706C28.9799 16.0942 29.1481 16.5004 29.4477 16.7999C29.7472 17.0995 30.1534 17.2677 30.577 17.2677C31.0005 17.2677 31.4068 17.0995 31.7063 16.7999ZM20.0558 19.9236C20.8864 19.093 22.013 18.6263 23.1878 18.6263C24.3625 18.6263 25.4891 19.093 26.3197 19.9236C27.1504 20.7543 27.617 21.8809 27.617 23.0556C27.617 24.2303 27.1504 25.3569 26.3197 26.1875C25.4891 27.0182 24.3625 27.4848 23.1878 27.4848C22.013 27.4848 20.8864 27.0182 20.0558 26.1875C19.2252 25.3569 18.7585 24.2303 18.7585 23.0556C18.7585 21.8809 19.2252 20.7543 20.0558 19.9236ZM18.5479 18.4179C17.3179 19.6479 16.6269 21.3161 16.6269 23.0556C16.6269 24.7951 17.3179 26.4633 18.5479 27.6933C19.7779 28.9233 21.4462 29.6143 23.1856 29.6143C24.9251 29.6143 26.5933 28.9233 27.8233 27.6933C29.0533 26.4633 29.7444 24.7951 29.7444 23.0556C29.7444 21.3161 29.0533 19.6479 27.8233 18.4179C26.5933 17.1879 24.9251 16.4969 23.1856 16.4969C21.4462 16.4969 19.7779 17.1879 18.5479 18.4179Z" fill="#6C5B5B"/>
</svg>
