<svg width="45" height="45" viewBox="0 0 45 45" fill="none" xmlns="http://www.w3.org/2000/svg">
<path fill-rule="evenodd" clip-rule="evenodd" d="M4 0C1.79086 0 0 1.79086 0 4V41C0 43.2091 1.79086 45 4 45H41C43.2091 45 45 43.2091 45 41V4C45 1.79086 43.2091 0 41 0H4ZM11.6278 11.7425C12.6677 10.7031 14.0777 10.1191 15.548 10.1191H30.335C31.8049 10.1197 33.2144 10.7039 34.2538 11.7433C35.2932 12.7826 35.8774 14.1922 35.8779 15.6621V30.4491C35.8779 31.9193 35.294 33.3294 34.2546 34.3693C33.2151 35.4091 31.8052 35.9936 30.335 35.9942H15.548C14.0774 35.9942 12.667 35.4099 11.6271 34.37C10.5871 33.3301 10.0029 31.9197 10.0029 30.4491V15.6621C10.0035 14.1918 10.588 12.782 11.6278 11.7425ZM31.4621 16.7999C31.7617 16.5004 31.9299 16.0942 31.9299 15.6706C31.9299 15.2471 31.7617 14.8408 31.4621 14.5413C31.1626 14.2418 30.7564 14.0735 30.3328 14.0735C29.9093 14.0735 29.503 14.2418 29.2035 14.5413C28.904 14.8408 28.7357 15.2471 28.7357 15.6706C28.7357 16.0942 28.904 16.5004 29.2035 16.7999C29.503 17.0995 29.9093 17.2677 30.3328 17.2677C30.7564 17.2677 31.1626 17.0995 31.4621 16.7999ZM19.8117 19.9236C20.6423 19.093 21.7689 18.6263 22.9436 18.6263C24.1183 18.6263 25.2449 19.093 26.0756 19.9236C26.9062 20.7543 27.3729 21.8809 27.3729 23.0556C27.3729 24.2303 26.9062 25.3569 26.0756 26.1875C25.2449 27.0182 24.1183 27.4848 22.9436 27.4848C21.7689 27.4848 20.6423 27.0182 19.8117 26.1875C18.981 25.3569 18.5144 24.2303 18.5144 23.0556C18.5144 21.8809 18.981 20.7543 19.8117 19.9236ZM18.3038 18.4179C17.0738 19.6479 16.3828 21.3161 16.3828 23.0556C16.3828 24.7951 17.0738 26.4633 18.3038 27.6933C19.5338 28.9233 21.202 29.6143 22.9415 29.6143C24.681 29.6143 26.3492 28.9233 27.5792 27.6933C28.8092 26.4633 29.5002 24.7951 29.5002 23.0556C29.5002 21.3161 28.8092 19.6479 27.5792 18.4179C26.3492 17.1879 24.681 16.4969 22.9415 16.4969C21.202 16.4969 19.5338 17.1879 18.3038 18.4179Z" fill="white"/>
</svg>
