<svg width="27" height="34" viewBox="0 0 27 34" fill="none" xmlns="http://www.w3.org/2000/svg">
<path d="M23.046 23.8648L13.5 33.75L3.954 23.8648C2.06601 21.9097 0.780279 19.4187 0.259393 16.7069C-0.261494 13.9952 0.00586021 11.1843 1.02765 8.62986C2.04944 6.07542 3.77976 3.8921 5.99982 2.35599C8.21988 0.819891 10.83 0 13.5 0C16.17 0 18.7801 0.819891 21.0002 2.35599C23.2202 3.8921 24.9506 6.07542 25.9724 8.62986C26.9941 11.1843 27.2615 13.9952 26.7406 16.7069C26.2197 19.4187 24.934 21.9097 23.046 23.8648ZM13.5 17.0862C14.2956 17.0862 15.0587 16.7589 15.6213 16.1763C16.1839 15.5937 16.5 14.8035 16.5 13.9796C16.5 13.1557 16.1839 12.3655 15.6213 11.7829C15.0587 11.2003 14.2956 10.873 13.5 10.873C12.7044 10.873 11.9413 11.2003 11.3787 11.7829C10.8161 12.3655 10.5 13.1557 10.5 13.9796C10.5 14.8035 10.8161 15.5937 11.3787 16.1763C11.9413 16.7589 12.7044 17.0862 13.5 17.0862Z" fill="#6C5B5B"/>
</svg>
