<svg width="182" height="51" viewBox="0 0 182 51" fill="none" xmlns="http://www.w3.org/2000/svg">
<path d="M0.0401508 0.844441C6.02263 0.844441 12.0051 0.924939 17.9876 0.844441C32.5623 0.643198 42.0379 11.9531 41.6364 25.9999C41.3554 35.5388 37.5009 43.186 28.5874 47.6134C25.0943 49.3441 21.3602 49.9076 17.5459 49.9478C11.6839 50.0283 5.86202 50.0283 0 50.0686C0 49.9076 0 49.7868 0 49.6258C0.843168 48.1769 2.4492 46.7279 2.4492 45.279C2.64996 31.9567 2.6098 18.6343 2.48935 5.31204C2.5295 3.6216 1.92724 1.93116 0.0401508 1.28718C0.0401508 1.12618 0.0401508 1.00544 0.0401508 0.844441ZM7.38776 1.81041C7.38776 17.5879 7.38776 33.3251 7.38776 49.1428C11.4831 49.1428 15.4179 49.3441 19.3527 49.1026C24.9337 48.7404 29.3904 46.1242 32.6025 41.4956C38.7857 32.6006 38.866 18.4331 32.8032 9.4979C29.9927 5.35229 26.2587 2.41414 21.3602 1.89091C16.7831 1.40792 12.1256 1.81041 7.38776 1.81041Z" fill="#E6DDCC"/>
<path d="M68.5366 50.8743C67.4525 50.6731 66.3684 50.4718 65.2844 50.2303C55.5277 48.1374 48.4612 40.4097 47.0157 30.267C45.8915 22.5795 47.1763 15.4152 51.7535 9.0157C55.0861 4.34686 59.7034 1.5697 65.3245 0.442735C65.726 0.362238 66.0874 0.160995 66.4487 0C69.1388 0 71.7888 0 74.4789 0C74.7198 0.120746 74.9206 0.362238 75.1615 0.402487C85.5204 2.57591 92.6672 10.4647 93.8718 21.0903C94.8755 29.9048 93.0687 37.9142 86.6446 44.3943C83.1515 47.9362 78.8554 49.8279 73.957 50.4316C73.435 50.5121 72.913 50.7133 72.3509 50.8341C71.1062 50.8743 69.8214 50.8743 68.5366 50.8743ZM51.071 25.2359C51.071 31.5147 52.5565 37.1495 55.4073 41.5769C62.514 52.5245 77.4501 52.8867 84.9181 42.3013C91.5029 32.9637 91.3423 17.1459 84.5568 7.92899C77.2895 -1.89169 62.795 -1.6502 55.8891 8.45222C52.3959 13.4833 51.071 19.1584 51.071 25.2359Z" fill="#E6DDCC"/>
<path d="M159.92 50.8745C167.429 47.9766 171.885 42.3015 174.455 34.8958C174.575 34.5335 174.616 34.1311 174.736 33.5273C171.685 35.4593 168.633 36.5057 165.22 36.546C158.957 36.6265 154.5 33.7688 152.051 28.134C148.919 20.9697 149.2 13.7652 153.416 7.08396C158.395 -0.80478 169.958 -1.52926 176.141 5.51426C178.47 8.17067 179.795 11.3101 180.598 14.7312C180.719 15.2142 180.879 15.6569 181.04 16.0997C181.04 19.7623 181.04 23.4652 181.04 27.1278C180.919 27.3693 180.719 27.6108 180.678 27.8523C178.35 38.8804 173.371 47.7351 161.607 50.8745C161.045 50.8745 160.482 50.8745 159.92 50.8745ZM154.299 18.3536C154.299 22.9822 155.102 26.7253 156.668 29.8244C160.603 37.3912 169.195 37.8339 173.893 30.6697C178.189 24.0689 177.828 12.115 173.13 5.796C168.473 -0.523039 160.603 0.000193715 156.829 6.96321C154.902 10.5051 154.219 14.369 154.299 18.3536Z" fill="#E6DDCC"/>
<path d="M117.201 50.8749C119.088 48.9429 118.847 46.6488 118.165 44.3546C115.193 33.8899 112.182 23.385 109.09 12.9606C108.448 10.7872 108.247 8.73451 108.809 6.56108C109.291 4.79014 109.612 3.0192 110.375 1.20801C111.419 4.83039 112.463 8.41252 113.507 12.0349C116.438 22.1776 119.369 32.28 122.3 42.4226C123.264 45.8035 124.629 48.9429 127.761 50.9151C124.227 50.8749 120.734 50.8749 117.201 50.8749Z" fill="#E6DDCC"/>
<path d="M140.888 50.876C142.334 48.6221 142.133 46.2877 141.41 43.7923C138.359 33.3276 135.307 22.8227 132.336 12.3178C132.015 11.1506 131.935 9.82241 132.055 8.61495C132.336 6.11953 132.858 3.66436 133.621 1.16895C135.468 7.52823 137.315 13.8473 139.162 20.2066C141.33 27.6928 143.578 35.1791 145.666 42.7458C146.55 45.9657 148.115 48.6624 150.605 50.876C147.353 50.876 144.1 50.876 140.888 50.876Z" fill="#E6DDCC"/>
<path d="M92.668 50.8749C94.3543 48.4198 96.0406 45.9646 97.8073 43.3887C99.4936 45.8841 101.14 48.3795 102.826 50.8749C99.4133 50.8749 96.0406 50.8749 92.668 50.8749Z" fill="#E6DDCC"/>
</svg>
