<svg width="13" height="21" viewBox="0 0 13 21" fill="none" xmlns="http://www.w3.org/2000/svg">
<path d="M10.9839 0C11.4435 0.120893 11.8306 0.32641 12.0363 0.773713C12.1331 1.00341 12.2056 1.26937 12.2056 1.52325C12.2177 7.50743 12.2177 13.4916 12.2056 19.4758C12.2056 20.3946 11.6008 20.987 10.6694 20.987C7.62097 20.987 4.58468 20.987 1.53629 20.987C0.592742 20.987 0 20.3946 0 19.4516C0 16.8645 0 14.2895 0 11.7024C0 8.31741 0 4.94451 0 1.55951C0 0.930873 0.241935 0.435214 0.82258 0.145071C0.943548 0.0846248 1.08871 0.0483571 1.22177 0C4.47581 0 7.72984 0 10.9839 0ZM11.2016 2.27278C7.79032 2.27278 4.39113 2.27278 0.991935 2.27278C0.991935 7.64041 0.991935 12.996 0.991935 18.3515C4.40323 18.3515 7.80242 18.3515 11.2016 18.3515C11.2016 12.9839 11.2016 7.62832 11.2016 2.27278ZM5.39516 19.5604C5.39516 19.9473 5.69758 20.2737 6.08468 20.2737C6.47177 20.2858 6.79839 19.9715 6.79839 19.5846C6.81048 19.1857 6.49597 18.8593 6.09677 18.8593C5.70968 18.8593 5.39516 19.1736 5.39516 19.5604ZM6.12097 1.02759C5.64919 1.02759 5.16532 1.02759 4.69355 1.02759C4.57258 1.02759 4.43952 1.03968 4.43952 1.19684C4.43952 1.354 4.56048 1.36609 4.68145 1.36609C5.625 1.36609 6.56855 1.36609 7.5 1.36609C7.62097 1.36609 7.75403 1.354 7.75403 1.19684C7.75403 1.03968 7.63306 1.02759 7.5121 1.02759C7.05242 1.02759 6.58065 1.02759 6.12097 1.02759Z" fill="white"/>
</svg>
