<svg width="29" height="31" viewBox="0 0 29 31" fill="none" xmlns="http://www.w3.org/2000/svg">
<path d="M24.0635 21.374C23.4306 21.3764 22.8048 21.5099 22.2236 21.7663C21.6423 22.0227 21.1176 22.3967 20.681 22.866L9.22743 16.9941C9.50917 16.1189 9.50917 15.1741 9.22743 14.2988L20.6997 8.32107C21.5215 9.20823 22.6358 9.75069 23.8262 9.843C25.0166 9.93531 26.198 9.57089 27.1407 8.82056C28.0834 8.07023 28.7201 6.9876 28.9271 5.7831C29.1341 4.57859 28.8966 3.33827 28.2607 2.3032C27.6248 1.26813 26.6359 0.512265 25.4863 0.182518C24.3368 -0.147229 23.1086 -0.0273001 22.0405 0.518994C20.9724 1.06529 20.1408 1.99892 19.7072 3.13842C19.2736 4.27793 19.269 5.54189 19.6944 6.68465L8.33482 12.6047C7.72132 11.836 6.89077 11.2805 5.95703 11.0144C5.02329 10.7482 4.03206 10.7845 3.11922 11.1182C2.20638 11.4518 1.41662 12.0666 0.85819 12.8781C0.299761 13.6897 0 14.6583 0 15.6513C0 16.6442 0.299761 17.6129 0.85819 18.4244C1.41662 19.236 2.20638 19.8507 3.11922 20.1844C4.03206 20.5181 5.02329 20.5543 5.95703 20.2882C6.89077 20.0221 7.72132 19.4666 8.33482 18.6979L19.6662 24.5409C19.4747 25.0676 19.3761 25.625 19.3749 26.187C19.3749 27.1389 19.6505 28.0695 20.1667 28.861C20.6829 29.6524 21.4166 30.2693 22.275 30.6336C23.1335 30.9979 24.0781 31.0932 24.9894 30.9075C25.9007 30.7218 26.7378 30.2634 27.3948 29.5903C28.0518 28.9172 28.4992 28.0596 28.6805 27.126C28.8618 26.1923 28.7687 25.2246 28.4132 24.3451C28.0576 23.4657 27.4555 22.714 26.6829 22.1851C25.9103 21.6562 25.002 21.374 24.0729 21.374H24.0635Z" fill="#E6DDCC"/>
</svg>
