<svg width="21" height="14" viewBox="0 0 21 14" fill="none" xmlns="http://www.w3.org/2000/svg">
<path d="M1.16667 14H5.83333C6.475 14 7 13.475 7 12.8333C7 12.1917 6.475 11.6667 5.83333 11.6667H1.16667C0.525 11.6667 0 12.1917 0 12.8333C0 13.475 0.525 14 1.16667 14ZM0 1.16667C0 1.80833 0.525 2.33333 1.16667 2.33333H19.8333C20.475 2.33333 21 1.80833 21 1.16667C21 0.525 20.475 0 19.8333 0H1.16667C0.525 0 0 0.525 0 1.16667ZM1.16667 8.16667H12.8333C13.475 8.16667 14 7.64167 14 7C14 6.35833 13.475 5.83333 12.8333 5.83333H1.16667C0.525 5.83333 0 6.35833 0 7C0 7.64167 0.525 8.16667 1.16667 8.16667Z" fill="#6C5B5B"/>
</svg>
