<svg width="33" height="33" viewBox="0 0 33 33" fill="none" xmlns="http://www.w3.org/2000/svg">
<path d="M21.4499 32.9829C18.3792 32.9829 15.326 32.9829 12.2553 32.9829C10.7723 32.9829 9.8999 32.128 9.8999 30.645C9.8999 24.5036 9.8999 18.3448 9.8999 12.2034C9.8999 10.7553 10.7548 9.90039 12.2029 9.90039C18.3618 9.90039 24.5031 9.90039 30.662 9.90039C32.145 9.90039 32.9999 10.7727 32.9999 12.2558C32.9999 18.3797 32.9999 24.5211 32.9999 30.645C32.9999 32.1106 32.1275 33.0004 30.6445 33.0004C27.5913 32.9829 24.5206 32.9829 21.4499 32.9829ZM11.3131 22.1483C11.2782 22.2704 11.2433 22.3053 11.2433 22.3576C11.2433 25.1841 11.2433 28.0105 11.2259 30.8369C11.2259 31.3778 11.4701 31.6221 12.0285 31.6221C13.8778 31.6046 15.7272 31.6221 17.5766 31.6046C17.7162 31.6046 17.8558 31.5523 18.0477 31.5174C18.0477 30.1391 18.0477 28.7956 18.0477 27.4522C18.0477 26.5275 18.2222 26.196 18.7107 26.196C19.2167 26.196 19.3911 26.5275 19.3911 27.4348C19.3911 28.7956 19.3911 30.1565 19.3911 31.5523C20.3333 31.5523 21.2056 31.5523 22.1129 31.5523C22.1129 28.9701 22.1129 26.4577 22.1129 23.9279C22.1129 23.5266 21.9384 23.4568 21.5895 23.4568C20.6822 23.4743 19.7575 23.4568 18.8503 23.4568C18.3967 23.4568 18.0652 23.2998 18.0477 22.8113C18.0303 22.2704 18.3792 22.1134 18.8677 22.1134C19.8448 22.1134 20.8218 22.1134 21.7988 22.1134C22.898 22.1134 23.4389 22.6542 23.4563 23.7534C23.4563 26.1262 23.4563 28.499 23.4563 30.8544C23.4563 31.0812 23.4738 31.308 23.4912 31.5523C24.4159 31.5523 25.2708 31.5523 26.1083 31.5523C26.1432 31.4476 26.1606 31.4127 26.1606 31.3778C26.1606 29.9297 26.1606 28.4641 26.1606 27.016C26.1606 25.1841 26.527 24.8177 28.3939 24.8351C28.516 24.8351 28.6556 24.8351 28.7777 24.8351C29.2313 24.8526 29.5454 25.0445 29.5454 25.533C29.5454 25.9866 29.2139 26.1786 28.8126 26.1786C28.4113 26.196 27.9926 26.1786 27.5564 26.1786C27.5564 28.028 27.5564 29.7727 27.5564 31.6046C28.5858 31.6046 29.5803 31.6046 30.5748 31.6046C31.4994 31.6046 31.6041 31.5174 31.6041 30.6101C31.6041 28.0105 31.6041 25.3934 31.6041 22.7938C31.6041 22.5845 31.5867 22.3751 31.5692 22.1308C30.6969 22.1308 29.8594 22.1308 29.0394 22.1308C28.359 22.1308 27.696 22.1308 27.0155 22.1308C26.5445 22.1308 26.1781 21.9564 26.1955 21.4155C26.213 20.927 26.5445 20.7525 26.9981 20.7525C27.2075 20.7525 27.4343 20.7525 27.6436 20.7525C28.9347 20.7525 30.2433 20.7525 31.5518 20.7525C31.5518 19.8278 31.5518 18.9729 31.5518 18.0656C31.0284 18.0656 30.5573 18.0656 30.0862 18.0656C29.022 18.0656 27.9577 18.0656 26.8934 18.0482C26.4747 18.0482 26.1781 17.8214 26.1955 17.3678C26.1955 16.9141 26.4921 16.7222 26.9109 16.7048C27.1202 16.6873 27.347 16.7048 27.5564 16.7048C28.8824 16.7048 30.2084 16.7048 31.5867 16.7048C31.5867 15.1694 31.5867 13.7039 31.5867 12.2209C31.5867 11.3834 31.4471 11.2613 30.5922 11.2613C28.4462 11.2613 26.2828 11.2613 24.1368 11.2613C23.9274 11.2613 23.718 11.2787 23.5436 11.2962C23.5087 11.4008 23.4738 11.4532 23.4738 11.4881C23.4738 13.1456 23.4563 14.7856 23.4563 16.4431C23.4563 17.4724 22.8806 18.0656 21.8512 18.0831C20.2286 18.1005 18.5886 18.1005 16.966 18.0831C15.8843 18.0831 15.3085 17.5073 15.3085 16.4431C15.2911 14.9601 15.3085 13.4945 15.3085 12.0115C15.3085 11.7847 15.2911 11.5579 15.2736 11.2787C14.2093 11.2787 13.2149 11.2787 12.2204 11.2787C11.4004 11.2787 11.2433 11.4357 11.2433 12.2732C11.2433 14.9077 11.2433 17.5248 11.2433 20.1593C11.2433 20.3512 11.2608 20.5431 11.2782 20.7002C11.3655 20.7351 11.4178 20.7525 11.4527 20.7525C12.2378 20.7525 13.0229 20.7525 13.8081 20.77C14.6804 20.7874 15.3085 21.3632 15.326 22.2355C15.3434 23.736 15.326 25.2364 15.326 26.7369C15.326 27.173 15.1864 27.5394 14.6804 27.5569C14.1396 27.5743 13.9651 27.2254 13.9651 26.7543C13.9651 25.4807 13.9651 24.1896 13.9651 22.9159C13.9651 22.6891 13.9476 22.4623 13.9302 22.2006C13.0229 22.1483 12.168 22.1483 11.3131 22.1483ZM16.7392 11.2613C16.7392 13.1107 16.7392 14.8728 16.7392 16.6175C18.5537 16.6175 20.3158 16.6175 22.078 16.6175C22.078 14.803 22.078 13.0409 22.078 11.2613C20.2809 11.2613 18.5188 11.2613 16.7392 11.2613Z" fill="#6C5B5B"/>
<path d="M30.6609 2.77753C30.217 2.34377 29.7559 1.91001 29.312 1.45653C28.9705 1.10164 28.8681 0.648163 29.2266 0.23412C29.5681 -0.160206 29.9267 -0.00247546 30.234 0.352419C31.0536 1.2988 31.8902 2.2649 32.7269 3.21129C33.1025 3.64505 33.0854 4.05909 32.7098 4.49285C31.8902 5.41952 31.0877 6.3659 30.2682 7.31228C29.9438 7.68689 29.5852 7.88406 29.2096 7.4503C28.851 7.03625 28.9705 6.6025 29.312 6.22789C29.7559 5.77441 30.1999 5.32093 30.6438 4.86746C30.5926 4.78859 30.5584 4.72944 30.5072 4.65058C23.7288 4.65058 16.9503 4.65058 10.1718 4.65058C10.1206 4.72944 10.0523 4.80831 10.0011 4.88718C10.445 5.32093 10.906 5.75469 11.3499 6.20817C11.6914 6.56306 11.8451 6.99682 11.4865 7.43058C11.1109 7.90377 10.7182 7.68689 10.3938 7.29257C9.60838 6.3659 8.80589 5.43923 8.0034 4.53228C7.6107 4.0788 7.59362 3.64505 7.98633 3.19157C8.80589 2.2649 9.60838 1.31852 10.4279 0.372135C10.7523 -0.00247539 11.128 -0.179922 11.4865 0.253837C11.8451 0.687596 11.6914 1.10164 11.367 1.47625C10.9572 1.92973 10.5475 2.40292 10.0182 2.99441C16.9503 2.99441 23.6946 2.99441 30.456 2.99441C30.5243 2.93526 30.5926 2.85639 30.6609 2.77753Z" fill="#6C5B5B"/>
<path d="M4.9099 30.6788C5.34255 30.2343 5.7752 29.7727 6.22752 29.3282C6.58151 28.9863 7.01416 28.8495 7.44681 29.2085C7.87946 29.5676 7.70247 29.9437 7.32882 30.2685C6.38485 31.072 5.46055 31.8926 4.51658 32.7132C4.06426 33.1064 3.63161 33.0893 3.1793 32.6961C2.27466 31.8926 1.35036 31.0891 0.426059 30.3027C0.0524053 29.995 -0.183586 29.6359 0.229399 29.2427C0.662051 28.8324 1.11437 28.9863 1.48802 29.3453C1.94034 29.7727 2.35332 30.2001 2.78598 30.6275C2.86464 30.5933 2.92364 30.542 3.0023 30.5078C3.0023 23.7379 3.0023 16.9679 3.0023 10.044C2.43199 10.5398 1.94034 10.9501 1.48802 11.3604C1.11437 11.6852 0.701383 11.8562 0.268731 11.4972C-0.203252 11.104 0.0130737 10.7279 0.406393 10.403C1.31103 9.61662 2.21566 8.8302 3.1203 8.06089C3.67094 7.5822 4.00527 7.5822 4.55591 8.04379C5.46055 8.8302 6.36518 9.61662 7.26982 10.3859C7.66314 10.7279 7.89913 11.104 7.42715 11.4801C6.97483 11.8562 6.52251 11.6681 6.16852 11.3091C5.73587 10.8817 5.30322 10.4543 4.89024 10.0098C4.81157 10.0611 4.75257 10.1124 4.67391 10.1466C4.67391 16.9166 4.67391 23.6866 4.67391 30.4736C4.75257 30.5591 4.83124 30.6104 4.9099 30.6788Z" fill="#6C5B5B"/>
</svg>
