<svg width="18" height="19" viewBox="0 0 18 19" fill="none" xmlns="http://www.w3.org/2000/svg">
<path d="M15.0549 6.33239L14.3091 7.0777L15.9754 8.74291H10.9604C10.7729 8.04704 10.2237 7.49813 9.52735 7.31072V2.29893L11.1993 3.96983L11.9451 3.22452L9 0.28125L6.0549 3.22452L6.80068 3.96983L8.47265 2.29893V7.31072C7.77634 7.49809 7.22709 8.047 7.0396 8.74288H2.02463L3.69087 7.07767L2.9451 6.33236L0 9.27566L2.9451 12.2189L3.69087 11.4736L2.01313 9.79695H7.03957C7.22706 10.4928 7.77631 11.0417 8.47262 11.2291V16.2524L6.80064 14.5815L6.05487 15.3268L8.99996 18.27L11.9451 15.3268L11.1993 14.5815L9.52731 16.2524V11.2291C10.2236 11.0417 10.7729 10.4928 10.9604 9.79695H15.9868L14.3091 11.4736L15.0549 12.2189L18 9.27566L15.0549 6.33239Z" fill="#6C5B5B"/>
</svg>
