<svg width="32" height="32" viewBox="0 0 32 32" fill="none" xmlns="http://www.w3.org/2000/svg">
<g clip-path="url(#clip0_1_5441)">
<path d="M26.7643 10.7643L25.4384 12.0901L28.4007 15.0523H19.4852C19.1519 13.8144 18.1755 12.838 16.9375 12.5046V3.58922L19.9099 6.56155L21.2357 5.23573L16 0L10.7643 5.23573L12.0901 6.56155L15.0625 3.58922V12.5046C13.8246 12.8379 12.8482 13.8144 12.5148 15.0522H3.59934L6.56155 12.09L5.23573 10.7642L0 16L5.23573 21.2357L6.56155 19.9099L3.5789 16.9273H12.5148C12.8481 18.1652 13.8245 19.1416 15.0624 19.475V28.4108L12.09 25.4384L10.7642 26.7642L15.9999 31.9999L21.2357 26.7642L19.9098 25.4384L16.9374 28.4108V19.475C18.1753 19.1416 19.1518 18.1652 19.4851 16.9273H28.421L25.4384 19.9099L26.7642 21.2357L31.9999 16L26.7643 10.7643Z" fill="#6C5B5B"/>
</g>
<defs>
<clipPath id="clip0_1_5441">
<rect width="32" height="32" fill="white"/>
</clipPath>
</defs>
</svg>
