<svg width="45" height="45" viewBox="0 0 45 45" fill="none" xmlns="http://www.w3.org/2000/svg">
<path fill-rule="evenodd" clip-rule="evenodd" d="M4 0C1.79086 0 0 1.79086 0 4V41C0 43.2091 1.79086 45 4 45H41C43.2091 45 45 43.2091 45 41V4C45 1.79086 43.2091 0 41 0H4ZM32.625 32.3918L37.039 13.2983C37.4308 11.6154 36.3795 10.9566 35.178 11.3698L9.22941 20.5392C7.45989 21.1741 7.48601 22.0844 8.92905 22.4977L15.5631 24.4023L30.973 15.5023C31.6978 15.0591 32.3573 15.3047 31.8153 15.7479L19.3503 26.0792L18.8671 32.3619C19.5592 32.3619 19.8596 32.0864 20.2187 31.7569L23.4639 28.8941L30.1894 33.4399C31.4235 34.0748 32.292 33.7394 32.625 32.3918Z" fill="white"/>
</svg>
