<svg width="46" height="45" viewBox="0 0 46 45" fill="none" xmlns="http://www.w3.org/2000/svg">
<path fill-rule="evenodd" clip-rule="evenodd" d="M4.85938 0C2.65024 0 0.859375 1.79086 0.859375 4V41C0.859375 43.2091 2.65023 45 4.85937 45H41.8594C44.0685 45 45.8594 43.2091 45.8594 41V4C45.8594 1.79086 44.0685 0 41.8594 0H4.85938ZM33.4843 32.3918L37.8983 13.2983C38.2901 11.6154 37.2389 10.9566 36.0374 11.3698L10.0888 20.5392C8.31926 21.1741 8.34538 22.0844 9.78842 22.4977L16.4225 24.4023L31.8324 15.5023C32.5571 15.0591 33.2166 15.3047 32.6747 15.7479L20.2097 26.0792L19.7265 32.3619C20.4186 32.3619 20.719 32.0864 21.0781 31.7569L24.3233 28.8941L31.0488 33.4399C32.2829 34.0748 33.1513 33.7394 33.4843 32.3918Z" fill="#6C5B5B"/>
</svg>
