<svg width="45" height="45" viewBox="0 0 45 45" fill="none" xmlns="http://www.w3.org/2000/svg">
<path fill-rule="evenodd" clip-rule="evenodd" d="M4 0C1.79086 0 0 1.79086 0 4V41C0 43.2091 1.79086 45 4 45H41C43.2091 45 45 43.2091 45 41V4C45 1.79086 43.2091 0 41 0H4ZM10.3426 11H10C13.1813 15.4033 16.3234 19.7547 19.4655 24.1372C18.4704 25.3418 17.4763 26.5442 16.4822 27.7465C14.4941 30.1513 12.5059 32.556 10.509 34.9792C10.5532 34.9839 10.5854 34.9886 10.6111 34.9923C10.6422 34.9969 10.6637 35 10.6852 35C11.85 35 13.0149 35 14.1797 34.9896C14.2678 34.9896 14.3853 34.9169 14.4538 34.8338C15.4423 33.6397 16.4284 32.443 17.4144 31.2463C18.4008 30.0492 19.3871 28.8522 20.3759 27.6577C20.6597 27.315 20.9436 26.9723 21.2373 26.6192C21.2556 26.6415 21.2726 26.6615 21.2883 26.6801C21.3313 26.7309 21.3652 26.7709 21.3939 26.8165C23.3125 29.4647 25.231 32.1129 27.1398 34.7715C27.2475 34.9169 27.3551 34.9896 27.5411 34.9896C29.9384 34.9792 32.326 34.9792 34.7233 34.9792H34.7259C34.7781 34.9792 34.826 34.9746 34.8898 34.9685C34.9217 34.9654 34.9576 34.9619 35 34.9585C32.7732 31.8296 30.551 28.7103 28.3332 25.5972C27.2753 24.1122 26.2184 22.6287 25.1625 21.1463C27.5103 18.3145 29.8442 15.4828 32.1934 12.6325C32.6357 12.096 33.0784 11.5588 33.5219 11.0208C33.4849 11.0164 33.4565 11.012 33.4332 11.0084C33.4009 11.0035 33.3782 11 33.3555 11C32.1907 11 31.0258 11 29.861 11.0104C29.7631 11.0104 29.6359 11.1039 29.5673 11.1869C28.2858 12.7307 27.0088 14.2793 25.7333 15.8261C25.1382 16.5477 24.5435 17.269 23.9487 17.9892C23.8614 18.0916 23.774 18.1963 23.6857 18.3022C23.5859 18.4218 23.4848 18.543 23.381 18.6642C23.3492 18.6221 23.3222 18.585 23.2975 18.5511C23.2613 18.5013 23.2299 18.4582 23.195 18.415C21.482 16.0264 19.769 13.6274 18.0658 11.2285C17.9483 11.0623 17.8406 11 17.6449 11H10.3426ZM30.3407 32.3312C30.3798 32.3934 30.419 32.4557 30.4777 32.5595C30.3018 32.5595 30.1303 32.5547 29.9619 32.55C29.6336 32.5409 29.3166 32.532 28.9996 32.5595C28.5298 32.6114 28.2459 32.4245 27.962 32.0195C24.5048 27.2048 21.0356 22.3965 17.5637 17.5846C16.6023 16.2521 15.6406 14.9192 14.6789 13.5859C14.6563 13.5539 14.6351 13.5219 14.6132 13.4887C14.5781 13.4357 14.5411 13.3797 14.493 13.3159C14.5162 13.3128 14.5368 13.3097 14.5557 13.3069C14.6003 13.3002 14.6347 13.2951 14.6691 13.2951C15.3054 13.2951 15.9417 13.2951 16.5779 13.3055C16.6758 13.3055 16.8128 13.3782 16.8716 13.4613C19.7345 17.4649 22.5935 21.4727 25.4536 25.4821C27.082 27.7647 28.7107 30.0479 30.3406 32.331L30.3407 32.3312Z" fill="white"/>
</svg>
