<svg width="19" height="19" viewBox="0 0 19 19" fill="none" xmlns="http://www.w3.org/2000/svg">
<path d="M7.03207 12.9018C7.28859 12.9018 7.50088 12.9018 7.7397 12.9018C7.7397 13.2838 7.7397 13.648 7.7397 14.0566C7.9343 14.0655 8.10236 14.0833 8.29696 14.0922C8.29696 14.2698 8.29696 14.4386 8.29696 14.634C8.1289 14.6429 7.96084 14.6607 7.77508 14.6696C7.77508 15.1315 7.77508 15.5756 7.77508 16.0464C7.94315 16.0553 8.11121 16.0642 8.29696 16.082C8.29696 16.8104 8.29696 17.5388 8.29696 18.285C5.53721 18.285 2.78629 18.285 0 18.285C0 13.4792 0 8.66458 0 3.79663C4.2104 3.79663 8.42964 3.79663 12.6931 3.79663C12.6931 4.29409 12.6931 4.76489 12.6931 5.23569C12.6931 5.28011 12.6489 5.32453 12.6224 5.36006C12.2155 5.76868 11.8086 6.1773 11.384 6.57704C11.3044 6.65699 11.1629 6.69252 11.0479 6.70141C10.6764 6.71917 10.296 6.71029 9.88913 6.71029C9.88028 6.93237 9.86259 7.13668 9.85375 7.36764C9.63261 7.36764 9.42033 7.36764 9.1815 7.36764C9.17266 7.16333 9.16381 6.95902 9.14612 6.73694C8.695 6.73694 8.25274 6.73694 7.78393 6.73694C7.78393 7.17221 7.78393 7.62525 7.78393 8.10494C7.94315 8.11382 8.11121 8.12271 8.30581 8.14047C8.30581 8.31813 8.30581 8.4958 8.30581 8.69123C8.13775 8.70011 7.96968 8.71787 7.75739 8.72676C7.75739 9.15315 7.76624 9.57065 7.74855 9.97928C7.74855 10.0948 7.70432 10.2369 7.63356 10.3257C7.48319 10.5211 7.29743 10.6899 7.12937 10.8587C7.04092 10.7965 6.97016 10.6988 6.89055 10.6988C6.48366 10.681 6.07677 10.6899 5.64335 10.6899C5.66104 11.1963 5.58143 11.6848 5.72296 12.2889C5.59912 12.3955 5.3603 12.6087 5.0684 12.8663C5.30723 12.8841 5.44875 12.8929 5.62566 12.9107C5.62566 13.2838 5.62566 13.6569 5.62566 14.0566C6.10331 14.0566 6.54558 14.0566 7.03207 14.0566C7.03207 13.6835 7.03207 13.3016 7.03207 12.9018ZM5.64335 16.0464C6.11215 16.0464 6.55442 16.0464 7.00554 16.0464C7.00554 15.5756 7.00554 15.1226 7.00554 14.6784C6.53673 14.6784 6.09446 14.6784 5.64335 14.6784C5.64335 15.1404 5.64335 15.5756 5.64335 16.0464ZM3.53815 4.72047C3.53815 5.19128 3.53815 5.63543 3.53815 6.09736C4.00696 6.09736 4.45807 6.09736 4.90034 6.09736C4.90034 5.62655 4.90034 5.1824 4.90034 4.72047C4.44038 4.72047 4.00696 4.72047 3.53815 4.72047ZM5.65219 4.72047C5.65219 5.20016 5.65219 5.64432 5.65219 6.09736C6.121 6.09736 6.57211 6.09736 7.01438 6.09736C7.01438 5.62655 7.01438 5.1824 7.01438 4.72047C6.55442 4.72047 6.121 4.72047 5.65219 4.72047ZM9.13727 4.72936C8.65962 4.72936 8.21735 4.72936 7.77508 4.72936C7.77508 5.20016 7.77508 5.64432 7.77508 6.09736C8.23504 6.09736 8.67731 6.09736 9.13727 6.09736C9.13727 5.64432 9.13727 5.20016 9.13727 4.72936ZM4.90918 14.6784C4.42269 14.6784 3.98926 14.6784 3.547 14.6784C3.547 15.1492 3.547 15.5934 3.547 16.0464C4.0158 16.0464 4.45807 16.0464 4.90918 16.0464C4.90918 15.5845 4.90918 15.1404 4.90918 14.6784ZM7.01438 8.08717C7.01438 7.61637 7.01438 7.17221 7.01438 6.71917C6.54558 6.71917 6.10331 6.71917 5.64335 6.71917C5.64335 7.1811 5.64335 7.62525 5.64335 8.08717C6.10331 8.08717 6.54558 8.08717 7.01438 8.08717ZM1.40641 6.71029C1.40641 7.1278 1.39757 7.53642 1.41526 7.93616C1.41526 7.98946 1.50371 8.09606 1.55679 8.09606C1.96367 8.10494 2.37941 8.10494 2.78629 8.10494C2.78629 7.60749 2.78629 7.16333 2.78629 6.71029C2.31749 6.71029 1.88406 6.71029 1.40641 6.71029ZM4.89149 8.08717C4.89149 7.5986 4.89149 7.15445 4.89149 6.71917C4.42269 6.71917 3.98926 6.71917 3.53815 6.71917C3.53815 7.1811 3.53815 7.62525 3.53815 8.08717C3.99811 8.08717 4.44038 8.08717 4.89149 8.08717ZM4.90918 12.6886C4.43153 12.6886 3.98926 12.6886 3.53815 12.6886C3.53815 13.1594 3.53815 13.6036 3.53815 14.0566C4.00696 14.0566 4.44922 14.0566 4.90918 14.0566C4.90918 13.5947 4.90918 13.1505 4.90918 12.6886ZM1.40641 14.0566C1.89291 14.0566 2.33518 14.0566 2.78629 14.0566C2.78629 13.5947 2.78629 13.1505 2.78629 12.6709C2.37056 12.6709 1.98136 12.662 1.58332 12.6797C1.5214 12.6797 1.41526 12.7863 1.40641 12.8396C1.39757 13.2394 1.40641 13.6391 1.40641 14.0566ZM2.78629 6.10624C2.78629 5.63543 2.78629 5.19128 2.78629 4.72936C2.32633 4.72936 1.88407 4.72936 1.42411 4.72936C1.42411 5.20016 1.42411 5.64432 1.42411 6.10624C1.88407 6.10624 2.31749 6.10624 2.78629 6.10624ZM11.2425 4.72936C10.7825 4.72936 10.3402 4.72936 9.88028 4.72936C9.88028 5.19128 9.88028 5.63543 9.88028 6.10624C10.3402 6.10624 10.7825 6.10624 11.2425 6.10624C11.2425 5.63543 11.2425 5.19128 11.2425 4.72936ZM1.43295 16.0464C1.90176 16.0464 2.34402 16.0464 2.79514 16.0464C2.79514 15.5756 2.79514 15.1315 2.79514 14.6784C2.32633 14.6784 1.89291 14.6784 1.43295 14.6784C1.43295 15.1492 1.43295 15.5934 1.43295 16.0464ZM2.79514 12.0668C2.79514 11.596 2.79514 11.1607 2.79514 10.681C2.37941 10.681 1.97252 10.6722 1.57448 10.6899C1.5214 10.6899 1.42411 10.7788 1.41526 10.8321C1.40641 11.2318 1.40641 11.6404 1.40641 12.0668C1.88406 12.0668 2.32633 12.0668 2.79514 12.0668ZM4.90918 10.6988C4.43153 10.6988 3.98926 10.6988 3.53815 10.6988C3.53815 11.1696 3.53815 11.6138 3.53815 12.0579C4.00696 12.0579 4.44922 12.0579 4.90918 12.0579C4.90918 11.596 4.90918 11.1607 4.90918 10.6988ZM1.40641 8.70899C1.40641 9.1265 1.39757 9.51735 1.41526 9.91709C1.41526 9.97928 1.50371 10.077 1.54794 10.077C1.96367 10.0859 2.37056 10.0859 2.78629 10.0859C2.78629 9.5973 2.78629 9.16203 2.78629 8.70899C2.32633 8.70899 1.88406 8.70899 1.40641 8.70899ZM5.65219 10.0859C6.07677 10.0859 6.47481 10.0948 6.86401 10.077C6.92593 10.077 7.03207 9.99704 7.03207 9.94374C7.04976 9.52624 7.04092 9.11761 7.04092 8.70011C6.55442 8.70011 6.11215 8.70011 5.65219 8.70011C5.65219 9.17091 5.65219 9.60619 5.65219 10.0859ZM3.53815 10.0592C4.00696 10.0592 4.45807 10.0592 4.90918 10.0592C4.90918 9.5973 4.90918 9.16203 4.90918 8.71787C4.44038 8.71787 3.99811 8.71787 3.53815 8.71787C3.53815 9.1798 3.53815 9.61507 3.53815 10.0592Z" fill="#6C5B5B"/>
<path d="M8.88922 18.2706C8.88922 18.1463 8.88922 18.0397 8.88922 17.9331C8.88922 16.1476 8.88922 14.362 8.88037 12.5765C8.88037 12.3545 8.94229 12.1946 9.10151 12.0436C10.1983 10.9509 11.2775 9.85831 12.3654 8.7568C12.4451 8.67686 12.507 8.57026 12.6043 8.43701C12.8962 8.73904 13.1262 8.97888 13.365 9.21873C14.3203 10.1781 15.2756 11.1375 16.2132 12.0969C16.3016 12.1857 16.3901 12.3278 16.3901 12.4433C16.3989 14.3354 16.3989 16.2275 16.3989 18.1196C16.3989 18.164 16.3901 18.1995 16.3724 18.2617C13.9045 18.2706 11.4278 18.2706 8.88922 18.2706ZM11.764 15.2415C11.764 16.0054 11.764 16.7427 11.764 17.4978C12.3654 17.4978 12.9316 17.4978 13.5153 17.4978C13.5153 16.7338 13.5153 15.9965 13.5153 15.2415C12.9227 15.2415 12.3566 15.2415 11.764 15.2415ZM12.3478 12.5232C12.3478 12.239 12.3478 11.9991 12.3478 11.7415C12.1001 11.7415 11.8878 11.7415 11.6401 11.7415C11.6401 12.008 11.6401 12.2567 11.6401 12.5232C11.8878 12.5232 12.1089 12.5232 12.3478 12.5232ZM12.4097 13.909C12.3654 13.6159 12.3743 13.3316 12.2593 13.1273C12.2062 13.0385 11.7463 13.0562 11.7109 13.1362C11.6047 13.3583 11.6313 13.6336 11.6047 13.909C11.8878 13.909 12.1001 13.909 12.4097 13.909ZM12.9492 13.9001C13.2058 13.9001 13.418 13.9001 13.648 13.9001C13.648 13.6247 13.648 13.376 13.648 13.1184C13.4004 13.1184 13.1881 13.1184 12.9492 13.1184C12.9492 13.3849 12.9492 13.6336 12.9492 13.9001ZM12.9492 11.7415C12.9492 12.0169 12.9492 12.2567 12.9492 12.5232C13.1969 12.5232 13.418 12.5232 13.648 12.5232C13.648 12.2479 13.648 11.9991 13.648 11.7415C13.4092 11.7415 13.1969 11.7415 12.9492 11.7415Z" fill="#6C5B5B"/>
<path d="M18.664 12.3092C18.381 12.3092 18.0006 12.3181 17.6203 12.3003C17.523 12.2915 17.4168 12.1937 17.3372 12.1227C15.8512 10.6925 14.374 9.25343 12.8968 7.82325C12.8172 7.75219 12.7376 7.68112 12.6403 7.59229C12.4192 7.80549 12.1981 8.0098 11.9858 8.22299C10.6678 9.50216 9.34985 10.7724 8.04073 12.0605C7.84613 12.247 7.66038 12.3448 7.39502 12.327C7.11197 12.3003 6.82007 12.3181 6.4751 12.3181C6.56355 12.2115 6.61662 12.1404 6.67854 12.0783C7.34194 11.4209 7.9965 10.7547 8.66875 10.1062C8.82797 9.9552 8.89873 9.7953 8.89873 9.57323C8.88104 9.04912 8.88989 8.52502 8.88989 7.98315C9.26139 7.98315 9.58867 7.98315 9.95133 7.98315C9.96018 8.22299 9.97787 8.46284 9.99556 8.78263C10.8801 7.84102 11.7116 6.95271 12.5784 6.04663C14.6748 8.20523 16.6827 10.2661 18.664 12.3092Z" fill="#6C5B5B"/>
<path d="M2.48535 3.19537C2.48535 2.7601 2.48535 2.34259 2.48535 1.89844C5.04167 1.89844 7.59798 1.89844 10.172 1.89844C10.172 2.32483 10.172 2.74233 10.172 3.19537C7.62452 3.19537 5.07705 3.19537 2.48535 3.19537Z" fill="#6C5B5B"/>
<path d="M3.90039 1.33834C3.90039 0.974133 3.90039 0.636574 3.90039 0.28125C5.51909 0.28125 7.12895 0.28125 8.76535 0.28125C8.76535 0.627691 8.76535 0.974133 8.76535 1.33834C7.14664 1.33834 5.54563 1.33834 3.90039 1.33834Z" fill="#6C5B5B"/>
<path d="M5.64355 16.0423C5.64355 15.5626 5.64355 15.1274 5.64355 14.6743C6.10351 14.6743 6.53694 14.6743 7.00574 14.6743C7.00574 15.1274 7.00574 15.5715 7.00574 16.0423C6.55463 16.0423 6.12121 16.0423 5.64355 16.0423Z" fill="#6C5B5B"/>
</svg>
