<svg width="46" height="45" viewBox="0 0 46 45" fill="none" xmlns="http://www.w3.org/2000/svg">
<path fill-rule="evenodd" clip-rule="evenodd" d="M4.48438 0C2.27524 0 0.484375 1.79086 0.484375 4V41C0.484375 43.2091 2.27523 45 4.48437 45H41.4844C43.6935 45 45.4844 43.2091 45.4844 41V4C45.4844 1.79086 43.6935 0 41.4844 0H4.48438ZM27.7338 12.473C25.9365 12.4008 24.2455 12.3844 23.5696 12.3806H22.9507C21.5204 12.3882 15.5374 12.4527 13.6351 12.9831C12.4428 13.3134 11.5024 14.2943 11.1809 15.5411C10.6746 17.5143 10.6113 21.3658 10.6037 22.2987V22.7113C10.6113 23.6441 10.6746 27.4944 11.1809 29.4689C11.4986 30.7118 12.439 31.6914 13.6338 32.0281C15.5374 32.5572 21.5192 32.6217 22.9494 32.6306H23.2722L23.5696 32.6293C24.2455 32.6268 25.9365 32.6091 27.7338 32.5382L28.3717 32.5091C30.1804 32.4243 31.9878 32.2775 32.8852 32.0281C34.0762 31.6965 35.0166 30.7156 35.3381 29.4689C35.8444 27.4956 35.9077 23.6441 35.9165 22.7113V22.491L35.9153 22.2987C35.9077 21.3658 35.8444 17.5156 35.3381 15.5411C35.0204 14.2981 34.0813 13.3185 32.8852 12.9818C31.9878 12.7325 30.1804 12.5856 28.3717 12.5008L27.7338 12.473ZM28.3223 22.5062L20.7281 26.9362V18.0763L28.3223 22.5062Z" fill="#6C5B5B"/>
</svg>
