<svg width="45" height="45" viewBox="0 0 45 45" fill="none" xmlns="http://www.w3.org/2000/svg">
<path fill-rule="evenodd" clip-rule="evenodd" d="M4 0C1.79086 0 0 1.79086 0 4V41C0 43.2091 1.79086 45 4 45H41C43.2091 45 45 43.2091 45 41V4C45 1.79086 43.2091 0 41 0H4ZM27.2494 12.473C25.4521 12.4008 23.7611 12.3844 23.0852 12.3806H22.4663C21.036 12.3882 15.0531 12.4527 13.1507 12.9831C11.9584 13.3134 11.018 14.2943 10.6965 15.5411C10.1902 17.5143 10.1269 21.3658 10.1193 22.2987V22.7113C10.1269 23.6441 10.1902 27.4944 10.6965 29.4689C11.0142 30.7118 11.9546 31.6914 13.1494 32.0281C15.0531 32.5572 21.0348 32.6217 22.465 32.6306H22.7878L23.0852 32.6293C23.7611 32.6268 25.4521 32.6091 27.2494 32.5382L27.8873 32.5091C29.696 32.4243 31.5034 32.2775 32.4008 32.0281C33.5918 31.6965 34.5322 30.7156 34.8537 29.4689C35.36 27.4956 35.4233 23.6441 35.4322 22.7113V22.491L35.4309 22.2987C35.4233 21.3658 35.36 17.5156 34.8537 15.5411C34.536 14.2981 33.5969 13.3185 32.4008 12.9818C31.5034 12.7325 29.696 12.5856 27.8873 12.5008L27.2494 12.473ZM27.8379 22.5062L20.2437 26.9362V18.0763L27.8379 22.5062Z" fill="white"/>
</svg>
